<svg width="20" height="20" viewBox="0 0 20 20" fill="none" xmlns="http://www.w3.org/2000/svg">
<path d="M17.5644 14.2853C18.3741 12.9662 18.8017 11.4481 18.7996 9.90022C18.8018 8.35229 18.3741 6.83397 17.5644 5.51473L17.5599 5.50737C16.8086 4.28292 15.7559 3.27158 14.5024 2.56999C13.2488 1.8684 11.8363 1.5 10.3998 1.5C8.96324 1.5 7.55071 1.8684 6.29716 2.56999C5.04361 3.27158 3.99092 4.28292 3.23969 5.50737L3.23516 5.51473C2.42743 6.83485 2 8.35241 2 9.90003C2 11.4477 2.42743 12.9652 3.23516 14.2853L3.23988 14.2929C3.99113 15.5173 5.04383 16.5286 6.29737 17.2301C7.55091 17.9317 8.96342 18.3 10.3999 18.3C11.8364 18.3 13.2489 17.9316 14.5024 17.23C15.756 16.5284 16.8086 15.5171 17.5599 14.2927L17.5644 14.2853ZM11.4734 16.8602C11.3134 17.0147 11.1291 17.142 10.9279 17.237C10.7629 17.3154 10.5824 17.3561 10.3997 17.3561C10.2169 17.3561 10.0365 17.3154 9.87143 17.237C9.48873 17.0415 9.16113 16.7532 8.91856 16.3985C8.42322 15.6826 8.05615 14.8861 7.83376 14.0445C8.68821 13.9919 9.54355 13.9651 10.3998 13.9641C11.2556 13.9641 12.111 13.9909 12.966 14.0445C12.8428 14.4772 12.6891 14.9006 12.5058 15.3114C12.2644 15.8893 11.9139 16.4151 11.4734 16.8602ZM2.96014 10.3719H6.34821C6.37029 11.3173 6.47278 12.2591 6.65457 13.1871C5.72838 13.2687 4.80458 13.3807 3.88318 13.5231C3.34356 12.555 3.02812 11.4782 2.96014 10.3719ZM3.88318 6.27714C4.80421 6.41984 5.72832 6.53184 6.65551 6.61314C6.4734 7.54104 6.37072 8.48278 6.34858 9.42813H2.96014C3.02815 8.32196 3.34358 7.24516 3.88318 6.27714ZM9.3261 2.93985C9.48619 2.78536 9.67046 2.65809 9.87162 2.56308C10.0367 2.48466 10.2171 2.44397 10.3999 2.44397C10.5826 2.44397 10.7631 2.48466 10.9281 2.56308C11.3108 2.75855 11.6384 3.04683 11.881 3.40156C12.3763 4.11741 12.7434 4.91396 12.9658 5.75559C12.1113 5.8082 11.256 5.835 10.3998 5.83601C9.54393 5.83601 8.68853 5.8092 7.83357 5.75559C7.95669 5.32288 8.11048 4.89949 8.29377 4.48863C8.53512 3.91081 8.88563 3.38495 9.3261 2.93985ZM17.8394 9.42813H14.4513C14.4293 8.48274 14.3268 7.54095 14.145 6.61295C15.0712 6.5314 15.995 6.4194 16.9164 6.27695C17.456 7.24503 17.7714 8.3219 17.8394 9.42813ZM7.60385 13.1137C7.41929 12.2108 7.31507 11.2933 7.29239 10.3719H13.5073C13.4849 11.2933 13.3808 12.2109 13.1965 13.1139C12.2652 13.0527 11.333 13.0215 10.3998 13.0202C9.46729 13.0202 8.53532 13.0514 7.60385 13.1137ZM13.1957 6.68637C13.3802 7.58931 13.4845 8.50681 13.5072 9.42813H7.29239C7.31485 8.50676 7.41889 7.58919 7.60328 6.68619C8.5345 6.74734 9.46673 6.77855 10.4 6.77981C11.3324 6.77981 12.2644 6.7486 13.1959 6.68619L13.1957 6.68637ZM14.451 10.3719H17.8394C17.7714 11.4781 17.456 12.5549 16.9164 13.5229C15.9952 13.3802 15.0711 13.2682 14.144 13.1869C14.3261 12.259 14.4288 11.3173 14.451 10.3719ZM16.3505 5.40846C15.5451 5.52461 14.7374 5.6166 13.9273 5.68443C13.7818 5.14232 13.594 4.61242 13.3658 4.09959C13.1574 3.6277 12.8951 3.18147 12.5843 2.76977C14.0864 3.23047 15.4045 4.15399 16.3505 5.40846ZM5.12768 4.62775C5.98936 3.76524 7.04946 3.12728 8.21505 2.76977C8.19731 2.7928 8.17919 2.8147 8.16182 2.83792C7.56269 3.70035 7.12628 4.66504 6.8741 5.68443C6.06393 5.61585 5.25566 5.52386 4.44927 5.40846C4.65722 5.13296 4.88389 4.8721 5.12768 4.62775ZM4.44927 14.3916C5.25453 14.2754 6.06223 14.1835 6.8724 14.1156C7.01797 14.6577 7.20573 15.1876 7.43396 15.7005C7.64237 16.1724 7.9046 16.6186 8.21543 17.0303C6.71334 16.5696 5.39522 15.6461 4.44927 14.3916ZM15.6722 15.1723C14.8106 16.0348 13.7505 16.6728 12.5849 17.0303C12.6026 17.0073 12.6207 16.9854 12.6381 16.9621C13.2372 16.0997 13.6736 15.135 13.9258 14.1156C14.736 14.1842 15.5443 14.2762 16.3507 14.3916C16.1427 14.6671 15.916 14.928 15.6722 15.1723Z" fill="#171717"/>
</svg>
