<svg width="126" height="64" viewBox="0 0 126 64" fill="none" xmlns="http://www.w3.org/2000/svg">
<path d="M116.178 0.593178C116.476 0.383284 116.79 0.187992 117.107 0C117.488 3.10095 117.651 6.22381 118.029 9.32476C118.069 10.3049 118.346 11.2613 118.269 12.2468C117.374 12.0935 116.605 11.5953 115.749 11.3306C115.006 13.0353 114.261 14.7382 113.443 16.4082C111.819 20.075 110.1 23.6979 108.489 27.3683C107.29 29.9235 106.172 32.5171 104.957 35.0632C104.121 34.3058 103.482 33.3695 102.774 32.4989C101.253 30.5697 99.6951 28.6697 98.1427 26.766C96.878 29.3249 95.9635 32.0407 94.8124 34.6525C94.2608 36.0871 93.6211 37.487 93.0823 38.9289C92.3638 40.3489 91.9954 41.9404 91.1871 43.3093C89.6072 43.3823 88.0237 43.3166 86.4438 43.3385C85.5384 43.3075 84.6073 43.4535 83.7275 43.1724C87.8606 33.2034 91.9441 23.2142 96.0111 13.2178C96.1046 13.2288 96.2915 13.2525 96.385 13.2635C98.4818 16.0943 100.795 18.7608 102.952 21.546C103.148 21.9713 103.458 21.4858 103.55 21.2485C104.869 18.4159 106.126 15.554 107.442 12.7196C108.036 11.2631 108.837 9.89239 109.323 8.39028C108.559 7.99057 107.76 7.66021 106.962 7.33351C107.168 7.10901 107.373 6.88086 107.617 6.69652C110.483 4.67789 113.324 2.62823 116.178 0.593178Z" fill="white"/>
<path d="M7.64917 12.8272C9.43984 12.3655 11.3112 12.4805 13.1403 12.5535C14.7239 12.8382 16.3752 13.1357 17.7315 14.0556C19.7605 15.2711 21.2322 17.3902 21.6281 19.7191C21.7271 20.4327 21.7069 21.1573 21.7088 21.8764C19.6303 21.8691 17.5519 21.9129 15.4735 21.8527C15.4772 20.8397 15.0721 19.7866 14.2125 19.1971C12.9094 18.2042 11.1884 18.2389 9.63412 18.3812C8.73604 18.5637 7.78664 18.9032 7.2038 19.6479C6.59897 20.5787 6.65029 21.9823 7.56853 22.6959C9.17591 23.864 11.2103 24.0465 13.0542 24.6324C15.2609 25.2201 17.5446 25.7969 19.4416 27.1201C20.8033 28.0181 21.8572 29.376 22.3887 30.9128C23.0357 33.5702 22.8634 36.6109 21.2139 38.8887C19.4434 41.4458 16.3349 42.7198 13.3199 43.0081C11.3771 43.0173 9.38852 43.1998 7.49888 42.6431C4.80097 41.9203 2.25335 40.2065 1.01986 37.6495C0.347212 36.1839 -0.0835008 34.5704 0.0136388 32.9497C2.13971 32.9424 4.26395 32.9624 6.38819 32.9442C6.51832 33.8604 6.69061 34.8314 7.32476 35.5505C8.15137 36.4576 9.3427 36.9942 10.5579 37.1293C11.7162 37.195 12.9387 37.195 14.0054 36.673C14.8705 36.2496 15.7557 35.6345 16.0527 34.6726C16.2983 33.7692 16.2359 32.6467 15.4845 31.9896C14.3298 31.0752 12.8764 30.6719 11.4596 30.3598C8.857 29.6552 6.13343 29.1698 3.80208 27.7407C2.15987 26.7715 0.89156 25.1088 0.59281 23.2106C0.149268 20.7977 0.479176 18.1184 1.98576 16.1144C3.34021 14.3221 5.47911 13.2689 7.64917 12.8272Z" fill="white"/>
<path d="M35.2663 13.5371C35.3763 13.3601 35.4349 13.0243 35.6989 13.0516C37.6618 13.0443 39.6248 13.0462 41.5877 13.0589C45.0994 21.8945 48.7504 30.6736 52.2841 39.4982C52.6909 40.4784 53.1418 41.4439 53.4387 42.4641C51.1532 42.5189 48.8677 42.4733 46.5821 42.4897C45.8545 40.6609 45.2405 38.7937 44.5056 36.9686C40.5595 36.943 36.6134 36.9503 32.6674 36.9649C32.035 38.801 31.2781 40.5933 30.7392 42.4605C28.4684 42.5116 26.1957 42.5043 23.9248 42.4605C27.6803 32.809 31.4962 23.1813 35.2663 13.5371ZM38.4169 21.1097C37.8854 22.8582 37.1394 24.5337 36.6079 26.2804C35.9976 27.2824 35.741 28.4378 35.292 29.511C35.0299 30.1461 34.8099 30.7995 34.7183 31.4821C36.443 31.4712 38.1658 31.4767 39.8905 31.4767C40.7941 31.473 41.705 31.5259 42.6031 31.3927C42.4491 31.0788 42.2878 30.7685 42.1192 30.4619C41.9011 29.5402 41.4356 28.7006 41.1478 27.8008C40.7043 26.4593 40.1068 25.1707 39.7439 23.8037C39.7292 23.8785 39.7164 23.9515 39.7036 24.0282C39.4525 23.0134 39.0071 22.0606 38.6827 21.0696C38.6167 21.0805 38.4829 21.0988 38.4169 21.1097Z" fill="white"/>
<path d="M56.3066 13.0444C58.4529 13.0481 60.6009 13.0554 62.7472 13.0481C62.7417 16.8243 62.7453 20.6024 62.7453 24.3805C66.4531 24.386 70.1628 24.3896 73.8706 24.3787C73.9054 20.6043 73.8907 16.828 73.8779 13.0517C76.0223 13.0463 78.1667 13.0517 80.3129 13.0517C80.3166 22.8583 80.3093 32.6649 80.3166 42.4715C78.1685 42.5062 76.0205 42.4843 73.8742 42.4861C73.8999 38.4562 73.8944 34.4244 73.8761 30.3944C70.1646 30.3817 66.455 30.3798 62.7435 30.3981C62.7472 34.428 62.7417 38.4598 62.7453 42.4916C60.6009 42.4953 58.4565 42.4825 56.3121 42.4934C56.3231 32.6777 56.336 22.8602 56.3066 13.0444Z" fill="white"/>
<path d="M110.777 25.9045C112.128 22.9496 113.522 20.0165 114.827 17.0415C114.963 17.0525 115.234 17.0725 115.37 17.0835C115.592 17.6803 115.848 18.2625 116.112 18.8429C116.95 20.9218 117.831 22.9824 118.629 25.0795C119.058 26.0761 119.532 27.0562 119.866 28.0929C121.376 31.7103 122.846 35.3461 124.321 38.9781C124.89 40.4237 125.661 41.8053 126 43.3311C123.689 43.3549 121.376 43.3348 119.065 43.3457C118.865 43.3184 118.57 43.395 118.48 43.1523C117.859 41.9422 117.491 40.6226 116.93 39.3833C116.147 37.6403 115.557 35.8206 114.754 34.0867C114.421 33.3512 114.184 32.5773 113.854 31.8399C113.084 30.2009 112.56 28.4597 111.754 26.8371C111.422 27.1419 111.101 27.4614 110.806 27.8008C110.696 27.7643 110.478 27.6895 110.368 27.653C110.509 27.0708 110.634 26.4849 110.777 25.9045Z" fill="#05CC84"/>
<path d="M108.979 29.8597C109.516 28.5145 110.071 27.173 110.777 25.9045C110.634 26.4849 110.509 27.0708 110.368 27.653C110.478 27.6895 110.696 27.7644 110.806 27.8009C110.408 28.4835 109.845 29.0584 109.503 29.7757C109.327 29.8031 109.151 29.8305 108.979 29.8597Z" fill="#51C49E"/>
<path d="M35.2914 29.5111C35.7405 28.4379 35.9971 27.2825 36.6074 26.2805C36.2354 27.9378 35.4252 29.4526 35.0202 31.0989C37.4047 31.1811 39.7947 31.1774 42.1792 31.1026C42.1645 30.942 42.1334 30.6226 42.1187 30.462C42.2873 30.7686 42.4486 31.0789 42.6026 31.3928C41.7045 31.526 40.7936 31.4731 39.89 31.4768C38.1653 31.4768 36.4425 31.4713 34.7178 31.4822C34.8094 30.7996 35.0294 30.1462 35.2914 29.5111Z" fill="#A2B7C1"/>
<path d="M32.79 56.6623C33.2904 56.5199 33.8054 56.5418 34.3095 56.6531C34.3296 58.5513 34.2581 60.4531 34.3461 62.3495C35.2149 62.3659 36.0873 62.3093 36.9542 62.375C37.4711 62.6616 37.143 63.3588 37.2365 63.837C36.1093 63.8406 34.9674 63.9337 33.8494 63.7548C33.2556 63.4208 32.7406 62.793 32.8029 62.0812C32.7827 60.2743 32.8139 58.4673 32.79 56.6623Z" fill="white"/>
<path d="M42.2029 56.7479C42.619 56.3208 43.2714 56.6165 43.781 56.6621C43.8396 58.5493 43.7626 60.4402 43.825 62.3292C44.2575 62.3621 44.6919 62.3439 45.1189 62.269C45.1391 61.2725 45.1299 60.2741 45.1336 59.2776C45.6175 59.1352 46.1142 59.033 46.6163 58.9874C46.8271 60.0989 46.4862 61.2305 46.7685 62.3347C47.1845 62.3621 47.6024 62.3475 48.0203 62.373C48.0423 60.4639 48.0349 58.5566 48.0276 56.6475C48.5225 56.5563 49.0283 56.5271 49.5324 56.5435C49.5745 58.9764 49.5452 61.4075 49.5507 63.8405C48.3447 63.8277 47.1075 63.992 45.9345 63.6415C44.8898 63.8533 43.5317 64.1745 42.7289 63.2601C42.2322 62.833 42.1846 62.134 42.1937 61.5262C42.2047 59.9328 42.1791 58.3394 42.2029 56.7479Z" fill="white"/>
<path d="M55.9273 56.7408C56.8932 56.4396 57.9507 56.4907 58.9129 56.7791C59.8367 57.1642 60.1061 58.2392 60.1171 59.1445C60.1061 60.6065 60.1464 62.0684 60.0988 63.5285C59.9485 64.2805 59.0541 63.8772 58.5097 63.9465C58.5152 63.0832 58.5079 62.2217 58.5061 61.3603C57.7656 61.3931 57.0508 61.603 56.3195 61.6961C56.3067 62.4061 56.314 63.1161 56.325 63.8261C55.8393 63.9648 55.3316 63.9775 54.8294 63.9794C54.7836 62.1834 54.8111 60.3856 54.8093 58.5897C54.7744 57.8377 55.218 57.0383 55.9273 56.7408ZM56.3103 60.1958C57.0325 60.0224 57.7509 59.8308 58.4841 59.714C58.4272 59.2029 58.7407 58.4948 58.2256 58.1571C57.6355 58.1005 57.0435 58.1407 56.4533 58.1315C56.2609 58.8032 56.3048 59.5059 56.3103 60.1958Z" fill="white"/>
<path d="M65.431 56.5254C65.9185 56.5637 66.4922 56.4378 66.8936 56.79C66.9504 58.6371 66.8771 60.486 66.932 62.3331C67.8173 62.3787 68.7044 62.3185 69.5878 62.3659C70.0533 62.6963 69.7656 63.3515 69.8517 63.8315C68.785 63.8443 67.7128 63.9027 66.6498 63.7968C66.1513 63.6399 65.7719 63.2164 65.4896 62.793C65.365 62.1962 65.4108 61.5793 65.4016 60.9751C65.4163 59.4913 65.3723 58.0074 65.431 56.5254Z" fill="white"/>
<path d="M85.6631 56.7534C86.728 56.434 87.8552 56.5289 88.9512 56.58C88.964 57.0892 88.964 57.6003 88.9549 58.1113C88.0238 58.1296 87.0945 58.1186 86.1653 58.1314C86.004 58.7574 85.9307 59.4181 86.1451 60.0423C86.8379 59.8909 87.5198 59.6901 88.2162 59.5514C88.3024 60.0277 88.3409 60.5114 88.35 60.9969C87.6206 61.2342 86.8819 61.4368 86.1433 61.6448C86.1433 61.873 86.1433 62.1011 86.147 62.3311C87.0799 62.3658 88.0164 62.342 88.9512 62.3749C88.9658 62.9024 88.9622 63.4298 88.9457 63.9591C87.8222 63.8934 86.6015 64.1964 85.5568 63.6726C84.9905 63.3422 84.5011 62.7691 84.5286 62.081C84.5029 60.9166 84.5267 59.7521 84.5249 58.5877C84.4846 57.812 84.9575 57.071 85.6631 56.7534Z" fill="white"/>
<path d="M94.2188 56.6713C95.4376 56.4596 96.7077 56.4706 97.9266 56.6732C98.7715 56.7553 99.435 57.5766 99.3946 58.4089C99.413 59.6318 99.4148 60.8546 99.3928 62.0775C99.4405 63.0101 98.5845 63.9081 97.637 63.8479C96.5006 63.8643 95.3661 63.8552 94.2297 63.8424C94.2151 61.4514 94.2352 59.0605 94.2188 56.6713ZM95.7235 58.1296C95.7033 59.5387 95.718 60.9477 95.7125 62.3567C96.3595 62.3585 97.0065 62.3914 97.6516 62.3494C97.7103 62.2801 97.8276 62.145 97.8862 62.0775C97.9485 60.7688 97.9467 59.4547 97.8661 58.1479C97.1513 58.1315 96.4365 58.1333 95.7235 58.1296Z" fill="white"/>
<path d="M22.4165 58.4052C22.422 57.4324 23.3255 56.5783 24.3043 56.6476C25.2207 56.6987 26.3754 56.3665 27.0608 57.1532C27.4732 57.5821 27.7243 58.1753 27.7078 58.7739C27.7243 60.4513 27.7005 62.1286 27.7133 63.8041C27.2624 63.941 26.7951 64.0158 26.3259 63.9702C25.8017 63.1999 26.2782 62.2399 26.2104 61.3839C25.4699 61.3766 24.7203 61.488 24.0532 61.822C23.6903 62.4535 23.9744 63.2565 23.8754 63.9574C23.397 63.8899 22.7299 64.2093 22.4165 63.7311C22.4018 61.9552 22.3963 60.1793 22.4165 58.4052ZM24.0587 58.1716C23.9579 58.7922 23.989 59.4219 23.9945 60.0497C24.6617 60.0023 25.3361 59.9311 25.9703 59.7066C26.3259 59.2686 26.2599 58.6261 25.9391 58.1917C25.3215 58.0658 24.6818 58.1224 24.0587 58.1716Z" fill="white"/>
<path d="M74.8609 58.241C74.9031 57.5072 75.5097 56.8922 76.1879 56.6859C77.2436 56.5892 78.3085 56.6366 79.366 56.675C79.3312 57.1586 79.2725 57.6386 79.2212 58.1205C78.3048 58.1278 77.3884 58.1132 76.4738 58.146C76.2942 58.7611 76.2117 59.4218 76.4555 60.0351C77.1794 59.869 77.8924 59.6518 78.6292 59.5551C78.6237 60.0205 78.653 60.4914 78.6035 60.9568C77.9419 61.3364 77.1611 61.4021 76.439 61.612C76.4243 61.8438 76.4261 62.0774 76.4426 62.3111C77.3737 62.3786 78.3085 62.3549 79.2414 62.3439C79.2835 62.8732 79.5144 63.512 79.1112 63.9574C77.8502 63.9099 76.3217 64.295 75.3411 63.2784C74.7693 62.8057 74.8261 62.0044 74.8188 61.3401C74.8408 60.307 74.7803 59.2703 74.8609 58.241Z" fill="white"/>
</svg>
