<svg width="39" height="41" viewBox="0 0 39 41" fill="none" xmlns="http://www.w3.org/2000/svg">
<path d="M37.9163 8.93698L19.7547 0.169324C19.6753 0.130992 19.5882 0.111084 19.5 0.111084C19.4118 0.111084 19.3247 0.130992 19.2453 0.169324L1.08361 8.93698C0.984381 8.98489 0.900671 9.05982 0.842092 9.15315C0.783513 9.24648 0.752441 9.35444 0.752441 9.46464V30.7575C0.752441 30.8677 0.783513 30.9757 0.842092 31.069C0.900671 31.1623 0.984381 31.2373 1.08361 31.2852L19.2452 40.0528C19.3246 40.0912 19.4117 40.1111 19.4999 40.1111C19.5882 40.1111 19.6752 40.0912 19.7547 40.0528L37.9163 31.2852C38.0155 31.2373 38.0992 31.1623 38.1578 31.069C38.2164 30.9757 38.2474 30.8677 38.2474 30.7575V9.46471C38.2474 9.35451 38.2164 9.24654 38.1578 9.1532C38.0992 9.05985 38.0155 8.98491 37.9163 8.93698ZM19.4999 1.34768L36.3138 9.46464L31.4398 11.8176C31.4089 11.7935 31.3757 11.7725 31.3406 11.7551L14.641 3.69339L19.4999 1.34768ZM13.3177 4.35589L30.107 12.461L26.6684 14.1211L9.88596 6.01925L13.3177 4.35589ZM30.4999 13.5726V19.709L27.2879 21.2596V15.1232L30.4999 13.5726ZM37.0756 30.3899L20.0859 38.5916V18.6L24.1385 16.6436C24.2077 16.6102 24.2698 16.5634 24.321 16.506C24.3722 16.4485 24.4116 16.3816 24.4369 16.3089C24.4623 16.2363 24.4731 16.1593 24.4687 16.0825C24.4643 16.0057 24.4448 15.9305 24.4113 15.8612C24.3779 15.7919 24.3311 15.7299 24.2737 15.6787C24.2163 15.6275 24.1493 15.588 24.0767 15.5627C24.004 15.5374 23.9271 15.5266 23.8502 15.531C23.7734 15.5354 23.6982 15.5549 23.6289 15.5883L19.4999 17.5817L17.8753 16.7973C17.806 16.7638 17.7308 16.7443 17.6539 16.7399C17.5771 16.7355 17.5002 16.7463 17.4275 16.7716C17.3548 16.797 17.2879 16.8364 17.2305 16.8876C17.173 16.9388 17.1263 17.0009 17.0928 17.0702C17.0594 17.1395 17.0399 17.2147 17.0355 17.2915C17.0311 17.3683 17.0419 17.4453 17.0672 17.5179C17.0926 17.5906 17.132 17.6575 17.1832 17.7149C17.2344 17.7724 17.2964 17.8191 17.3657 17.8526L18.914 18.6V38.5916L1.92432 30.3897V10.3982L14.8618 16.6439C14.9411 16.6823 15.028 16.7023 15.1161 16.7023C15.2489 16.7025 15.3778 16.6575 15.4817 16.5748C15.5856 16.4922 15.6583 16.3766 15.688 16.2472C15.7176 16.1178 15.7024 15.9821 15.6449 15.8624C15.5874 15.7428 15.4909 15.6462 15.3713 15.5885L2.68611 9.46464L8.50682 6.65464L26.1079 15.1517C26.1105 15.1553 26.1134 15.1585 26.116 15.1621V22.1932C26.1161 22.2924 26.1413 22.3899 26.1893 22.4767C26.2373 22.5635 26.3066 22.6367 26.3906 22.6894C26.4746 22.7421 26.5706 22.7727 26.6696 22.7782C26.7686 22.7837 26.8674 22.764 26.9567 22.7209L31.3406 20.6046C31.4398 20.5567 31.5235 20.4817 31.5821 20.3884C31.6407 20.2951 31.6717 20.1871 31.6717 20.0769V13.007L37.0756 10.3982V30.3899Z" fill="#05CC84"/>
</svg>
