<svg width="41" height="40" viewBox="0 0 41 40" fill="none" xmlns="http://www.w3.org/2000/svg">
<path d="M24.4985 4.58325V4.33325H24.2485H10.4985C8.44019 4.33325 6.55757 5.44975 5.54727 7.24389L5.54657 7.24515C5.28069 7.72374 4.66661 7.89809 4.18659 7.63142C3.70812 7.3656 3.53372 6.75165 3.80013 6.27167C5.15636 3.85017 7.72324 2.33325 10.4985 2.33325H25.4985C26.0437 2.33325 26.4985 2.78799 26.4985 3.33325V19.9999C26.4985 22.3952 24.5604 24.3333 22.1651 24.3333H20.4985C19.9532 24.3333 19.4985 23.8785 19.4985 23.3333C19.4985 22.788 19.9532 22.3333 20.4985 22.3333H22.1651C23.4532 22.3333 24.4985 21.288 24.4985 19.9999V4.58325Z" fill="#05CC84" stroke="#F5FDFA" stroke-width="0.5"/>
<path d="M9.41801 32.3334H9.60636L9.65831 32.1523C10.1786 30.3391 11.8501 29 13.8347 29C15.8193 29 17.4908 30.3391 18.0111 32.1523L18.0631 32.3334H18.2514H22.768H22.9564L23.0083 32.1523C23.5287 30.3391 25.2001 29 27.1847 29C29.1693 29 30.8407 30.3391 31.361 32.1523L31.413 32.3334H31.6013H32.168C34.3728 32.3334 36.168 30.5381 36.168 28.3334V24.5834V24.3334H35.918H32.168C30.7061 24.3334 29.5014 23.1286 29.5014 21.6667V16.6667C29.5014 15.2038 30.6904 14 32.168 14H32.5991L32.385 13.6259L30.6024 10.5106C30.6023 10.5103 30.6022 10.5101 30.602 10.5098C30.1898 9.77972 29.4057 9.33337 28.5681 9.33337H26.7514H26.5014V9.58337V20C26.5014 22.3953 24.5633 24.3334 22.168 24.3334H20.5014C19.9561 24.3334 19.5014 23.8786 19.5014 23.3334C19.5014 22.7881 19.9561 22.3334 20.5014 22.3334H22.168C23.4561 22.3334 24.5014 21.2881 24.5014 20V8.33337C24.5014 7.78811 24.9561 7.33337 25.5014 7.33337H28.5681C30.1281 7.33337 31.5618 8.16837 32.3341 9.52383L32.3343 9.52418L35.1837 14.5064C35.1838 14.5066 35.1839 14.5067 35.184 14.5069C35.3573 14.8138 35.3572 15.2035 35.1837 15.5104C35.0138 15.811 34.6828 16 34.318 16H32.168C31.7966 16 31.5014 16.2953 31.5014 16.6667V21.6667C31.5014 22.0381 31.7966 22.3334 32.168 22.3334H37.168C37.7133 22.3334 38.168 22.7881 38.168 23.3334V28.3334C38.168 31.6453 35.48 34.3334 32.168 34.3334H30.5014C29.9561 34.3334 29.5014 33.8786 29.5014 33.3334C29.5014 32.0453 28.4561 31 27.168 31C25.88 31 24.8347 32.0453 24.8347 33.3334C24.8347 33.8786 24.38 34.3334 23.8347 34.3334H17.168C16.6228 34.3334 16.168 33.8786 16.168 33.3334C16.168 32.0453 15.1228 31 13.8347 31C12.5466 31 11.5014 32.0453 11.5014 33.3334C11.5014 33.8786 11.0466 34.3334 10.5014 34.3334H8.83472C5.52279 34.3334 2.83472 31.6453 2.83472 28.3334C2.83472 27.7881 3.28945 27.3334 3.83472 27.3334C4.37998 27.3334 4.83472 27.7881 4.83472 28.3334C4.83472 30.5381 6.62998 32.3334 8.83472 32.3334H9.41801Z" fill="#05CC84" stroke="#F5FDFA" stroke-width="0.5"/>
<path d="M13.8333 37.6667C11.4381 37.6667 9.5 35.7286 9.5 33.3333C9.5 30.9381 11.4381 29 13.8333 29C16.2286 29 18.1667 30.9381 18.1667 33.3333C18.1667 35.7286 16.2286 37.6667 13.8333 37.6667ZM13.8333 31C12.5453 31 11.5 32.0453 11.5 33.3333C11.5 34.6214 12.5453 35.6667 13.8333 35.6667C15.1214 35.6667 16.1667 34.6214 16.1667 33.3333C16.1667 32.0453 15.1214 31 13.8333 31Z" fill="#05CC84" stroke="#F5FDFA" stroke-width="0.5"/>
<path d="M27.1681 37.6667C24.7728 37.6667 22.8347 35.7286 22.8347 33.3333C22.8347 30.9381 24.7728 29 27.1681 29C29.5633 29 31.5014 30.9381 31.5014 33.3333C31.5014 35.7286 29.5633 37.6667 27.1681 37.6667ZM27.1681 31C25.88 31 24.8347 32.0453 24.8347 33.3333C24.8347 34.6214 25.88 35.6667 27.1681 35.6667C28.4561 35.6667 29.5014 34.6214 29.5014 33.3333C29.5014 32.0453 28.4561 31 27.1681 31Z" fill="#05CC84" stroke="#F5FDFA" stroke-width="0.5"/>
<path d="M35.1802 14.5024L35.1801 14.5024L35.1828 14.5071L38.0316 19.505C38.115 19.6585 38.1667 19.8335 38.1667 20V23.3333C38.1667 23.8786 37.7119 24.3333 37.1667 24.3333H32.1667C30.7047 24.3333 29.5 23.1286 29.5 21.6667V16.6667C29.5 15.2047 30.7047 14 32.1667 14H34.3166C34.6801 14 35.0096 14.1876 35.1802 14.5024ZM35.9167 22.3333H36.1667V22.0833V20.3334V20.267L36.1337 20.2093L33.8004 16.126L33.7284 16H33.5833H32.1667C31.7953 16 31.5 16.2953 31.5 16.6667V21.6667C31.5 22.0381 31.7953 22.3333 32.1667 22.3333H35.9167Z" fill="#05CC84" stroke="#F5FDFA" stroke-width="0.5"/>
<path d="M13.8347 14.3334H3.83472C3.28945 14.3334 2.83472 13.8786 2.83472 13.3334C2.83472 12.7881 3.28945 12.3334 3.83472 12.3334H13.8347C14.38 12.3334 14.8347 12.7881 14.8347 13.3334C14.8347 13.8786 14.38 14.3334 13.8347 14.3334Z" fill="#05CC84" stroke="#F5FDFA" stroke-width="0.5"/>
<path d="M10.5014 19.3334H3.83472C3.28945 19.3334 2.83472 18.8786 2.83472 18.3334C2.83472 17.7881 3.28945 17.3334 3.83472 17.3334H10.5014C11.0466 17.3334 11.5014 17.7881 11.5014 18.3334C11.5014 18.8786 11.0466 19.3334 10.5014 19.3334Z" fill="#05CC84" stroke="#F5FDFA" stroke-width="0.5"/>
<path d="M7.16805 24.3334H3.83472C3.28945 24.3334 2.83472 23.8786 2.83472 23.3334C2.83472 22.7881 3.28945 22.3334 3.83472 22.3334H7.16805C7.71331 22.3334 8.16805 22.7881 8.16805 23.3334C8.16805 23.8786 7.71331 24.3334 7.16805 24.3334Z" fill="#05CC84" stroke="#F5FDFA" stroke-width="0.5"/>
</svg>
