<svg width="41" height="41" viewBox="0 0 41 41" fill="none" xmlns="http://www.w3.org/2000/svg">
<path d="M20.1272 33.9489L19.6458 34.1898L5.49989 27.9028V11.3934L19.328 17.5393C19.4346 17.5866 19.5499 17.6111 19.6666 17.6111C19.7832 17.6111 19.8985 17.5866 20.0051 17.5393L33.8333 11.3934V18.4444C33.8354 18.664 33.9241 18.8739 34.0802 19.0285C34.2362 19.183 34.4469 19.2697 34.6666 19.2697C34.8862 19.2697 35.0969 19.183 35.253 19.0285C35.409 18.8739 35.4978 18.664 35.4999 18.4444V10.1111C35.4999 9.94988 35.4531 9.79217 35.3653 9.65701C35.2775 9.52186 35.1524 9.41507 35.0051 9.34957L20.0051 2.68293C19.8985 2.63564 19.7832 2.61121 19.6666 2.61121C19.55 2.61121 19.4346 2.63564 19.328 2.68293L4.32802 9.34957C4.18075 9.41507 4.05564 9.52186 3.96783 9.65701C3.88002 9.79217 3.83327 9.94988 3.83325 10.1111V28.4444C3.83328 28.6056 3.88003 28.7632 3.96784 28.8983C4.05566 29.0335 4.18077 29.1402 4.32802 29.2057L19.328 35.8723C19.4403 35.9223 19.5623 35.9469 19.6852 35.9442C19.8082 35.9415 19.929 35.9116 20.039 35.8567L20.8723 35.44C20.9708 35.3915 21.0588 35.3239 21.1311 35.2412C21.2034 35.1585 21.2587 35.0624 21.2937 34.9583C21.3287 34.8542 21.3428 34.7442 21.3352 34.6346C21.3275 34.525 21.2983 34.418 21.2492 34.3198C21.2001 34.2215 21.132 34.134 21.0489 34.0621C20.9658 33.9903 20.8694 33.9356 20.7651 33.9011C20.6608 33.8667 20.5507 33.8532 20.4412 33.8614C20.3316 33.8697 20.2248 33.8995 20.1268 33.9492L20.1272 33.9489ZM19.6662 15.8658L13.7708 13.2454L26.6718 7.51175C26.6866 7.50511 26.699 7.49543 26.7132 7.48832L32.6147 10.1111L19.6662 15.8658ZM19.6662 4.35621L24.6671 6.57871L11.828 12.285C11.795 12.301 11.763 12.3193 11.7324 12.3396L6.71864 10.1111L19.6662 4.35621Z" fill="#05CC84"/>
<path d="M28.8332 19.2777C27.185 19.2777 25.5738 19.7664 24.2034 20.6821C22.833 21.5978 21.7649 22.8993 21.1341 24.422C20.5034 25.9447 20.3383 27.6203 20.6599 29.2368C20.9814 30.8533 21.7751 32.3382 22.9405 33.5036C24.106 34.6691 25.5908 35.4627 27.2073 35.7843C28.8238 36.1058 30.4994 35.9408 32.0221 35.3101C33.5449 34.6794 34.8464 33.6113 35.762 32.2408C36.6777 30.8704 37.1665 29.2593 37.1665 27.6111C37.164 25.4017 36.2853 23.2835 34.723 21.7212C33.1607 20.159 31.0426 19.2802 28.8332 19.2777ZM28.8332 34.2777C27.5147 34.2777 26.2257 33.8867 25.1294 33.1542C24.0331 32.4216 23.1786 31.3804 22.674 30.1623C22.1694 28.9441 22.0374 27.6037 22.2947 26.3105C22.5519 25.0173 23.1868 23.8294 24.1192 22.897C25.0515 21.9647 26.2394 21.3298 27.5326 21.0725C28.8258 20.8153 30.1662 20.9473 31.3844 21.4519C32.6026 21.9565 33.6438 22.811 34.3763 23.9073C35.1088 25.0036 35.4998 26.2925 35.4998 27.6111C35.4978 29.3785 34.7948 31.0731 33.545 32.3229C32.2952 33.5727 30.6007 34.2757 28.8332 34.2777Z" fill="#05CC84"/>
<path d="M31.5773 25.3552L27.9998 28.9327L26.5057 27.4385C26.4286 27.3597 26.3367 27.2969 26.2352 27.2538C26.1337 27.2108 26.0247 27.1883 25.9145 27.1876C25.8043 27.187 25.695 27.2082 25.593 27.2501C25.4911 27.292 25.3984 27.3537 25.3205 27.4317C25.2425 27.5096 25.1808 27.6023 25.1389 27.7042C25.097 27.8062 25.0758 27.9155 25.0764 28.0257C25.0771 28.1359 25.0996 28.2449 25.1426 28.3464C25.1857 28.4479 25.2485 28.5398 25.3273 28.6169L27.4107 30.7002C27.488 30.7776 27.5799 30.839 27.681 30.8809C27.7821 30.9228 27.8904 30.9444 27.9998 30.9444C28.1093 30.9444 28.2176 30.9228 28.3187 30.8809C28.4198 30.839 28.5117 30.7776 28.589 30.7002L32.7557 26.5336C32.909 26.3767 32.9942 26.1657 32.993 25.9464C32.9917 25.7271 32.904 25.5171 32.7489 25.362C32.5938 25.2069 32.3838 25.1192 32.1645 25.1179C31.9452 25.1167 31.7342 25.2019 31.5773 25.3552V25.3552Z" fill="#05CC84"/>
</svg>
