<svg width="43" height="40" viewBox="0 0 43 40" fill="none" xmlns="http://www.w3.org/2000/svg">
<path d="M42.522 21.8014L33.785 13.0643C33.5894 12.8675 33.3567 12.7114 33.1003 12.6052C32.8439 12.499 32.569 12.4448 32.2915 12.4457H20.2065V13.8533H23.7255V24.4104H25.1331V13.8533H32.2915C32.3841 13.8532 32.4757 13.8714 32.5612 13.9068C32.6467 13.9422 32.7244 13.9941 32.7898 14.0595L33.9912 15.2609H30.7636C30.3903 15.2609 30.0322 15.4092 29.7683 15.6732C29.5043 15.9372 29.356 16.2952 29.356 16.6685V23.0028C29.356 23.3761 29.5043 23.7341 29.7683 23.9981C30.0322 24.2621 30.3903 24.4104 30.7636 24.4104H41.3206V30.0408C41.3206 30.2275 41.2465 30.4065 41.1145 30.5385C40.9825 30.6705 40.8035 30.7446 40.6168 30.7446H39.1529C38.9846 29.5729 38.3996 28.5011 37.505 27.7258C36.6104 26.9505 35.4664 26.5238 34.2826 26.5238C33.0988 26.5238 31.9548 26.9505 31.0602 27.7258C30.1656 28.5011 29.5806 29.5729 29.4123 30.7446H19.4464C19.2781 29.5729 18.6931 28.5011 17.7985 27.7258C16.9039 26.9505 15.7598 26.5238 14.5761 26.5238C13.3923 26.5238 12.2482 26.9505 11.3537 27.7258C10.4591 28.5011 9.87404 29.5729 9.70576 30.7446H8.24185C8.05519 30.7446 7.87617 30.6705 7.74418 30.5385C7.61219 30.4065 7.53804 30.2275 7.53804 30.0408V23.7066H6.13043V30.0408C6.13043 30.6008 6.35289 31.1378 6.74885 31.5338C7.14482 31.9298 7.68187 32.1522 8.24185 32.1522H9.70576C9.85938 33.2224 10.3618 34.2119 11.1352 34.9674H0.5V36.375H34.2826C35.4661 36.3728 36.6092 35.9449 37.5034 35.1697C38.3975 34.3944 38.983 33.3234 39.1529 32.1522H40.6168C41.1768 32.1522 41.7139 31.9298 42.1098 31.5338C42.5058 31.1378 42.7283 30.6008 42.7283 30.0408V22.299C42.7282 22.1123 42.654 21.9333 42.522 21.8014ZM11.0571 31.4484C11.0571 30.7524 11.2635 30.072 11.6501 29.4933C12.0368 28.9146 12.5864 28.4636 13.2294 28.1973C13.8724 27.9309 14.58 27.8612 15.2626 27.997C15.9452 28.1328 16.5723 28.4679 17.0644 28.9601C17.5566 29.4522 17.8917 30.0793 18.0275 30.7619C18.1633 31.4445 18.0936 32.1521 17.8272 32.7951C17.5609 33.4381 17.1098 33.9877 16.5311 34.3744C15.9524 34.761 15.2721 34.9674 14.5761 34.9674C13.6431 34.9663 12.7487 34.5952 12.089 33.9355C11.4293 33.2758 11.0582 32.3814 11.0571 31.4484ZM18.017 34.9674C18.7903 34.2119 19.2928 33.2224 19.4464 32.1522H29.4123C29.5659 33.2224 30.0683 34.2119 30.8417 34.9674H18.017ZM34.2826 34.9674C33.5866 34.9674 32.9062 34.761 32.3275 34.3744C31.7488 33.9877 31.2978 33.4381 31.0315 32.7951C30.7651 32.1521 30.6954 31.4445 30.8312 30.7619C30.967 30.0793 31.3021 29.4522 31.7943 28.9601C32.2864 28.4679 32.9135 28.1328 33.5961 27.997C34.2787 27.8612 34.9863 27.9309 35.6293 28.1973C36.2723 28.4636 36.8219 28.9146 37.2086 29.4933C37.5952 30.072 37.8016 30.7524 37.8016 31.4484C37.8005 32.3814 37.4294 33.2758 36.7697 33.9355C36.11 34.5952 35.2156 34.9663 34.2826 34.9674ZM30.7636 23.0028V16.6685H35.3988L41.3206 22.5903V23.0028H30.7636Z" fill="#05CC84"/>
<path d="M13.8723 30.7446H15.2799V32.1522H13.8723V30.7446ZM33.5788 30.7446H34.9864V32.1522H33.5788V30.7446ZM0.5 28.6332H4.01902V30.0408H0.5V28.6332ZM1.90761 25.8179H4.01902V27.2255H1.90761V25.8179ZM2.61141 23.0027H4.01902V24.4103H2.61141V23.0027ZM9.64946 22.2989C11.459 22.2989 13.228 21.7623 14.7326 20.757C16.2372 19.7516 17.41 18.3226 18.1025 16.6508C18.795 14.979 18.9761 13.1393 18.6231 11.3645C18.2701 9.58967 17.3987 7.95939 16.1191 6.67982C14.8395 5.40024 13.2092 4.52884 11.4344 4.17581C9.65961 3.82277 7.81995 4.00396 6.14811 4.69646C4.47627 5.38897 3.04732 6.56167 2.04196 8.06629C1.03661 9.57091 0.5 11.3399 0.5 13.1495C0.502794 15.5752 1.46765 17.9008 3.1829 19.616C4.89815 21.3313 7.22373 22.2961 9.64946 22.2989ZM9.64946 5.40761C11.1806 5.40761 12.6775 5.86166 13.9506 6.71235C15.2237 7.56303 16.216 8.77214 16.802 10.1868C17.388 11.6014 17.5413 13.158 17.2425 14.6598C16.9438 16.1616 16.2065 17.5411 15.1238 18.6238C14.0411 19.7065 12.6616 20.4438 11.1598 20.7425C9.65804 21.0413 8.10142 20.888 6.68678 20.302C5.27214 19.716 4.06303 18.7237 3.21235 17.4506C2.36166 16.1775 1.90761 14.6807 1.90761 13.1495C1.91003 11.0969 2.72646 9.12917 4.17782 7.67782C5.62917 6.22647 7.59693 5.41003 9.64946 5.40761Z" fill="#05CC84"/>
<path d="M9.64941 19.4837C9.83605 19.4836 10.015 19.4094 10.147 19.2774C10.6002 18.8242 14.576 14.7611 14.576 11.7418C14.576 10.4352 14.057 9.18208 13.1331 8.25816C12.2091 7.33424 10.956 6.81519 9.64941 6.81519C8.34278 6.81519 7.08968 7.33424 6.16576 8.25816C5.24183 9.18208 4.72278 10.4352 4.72278 11.7418C4.72278 14.7611 8.69857 18.8242 9.15182 19.2774C9.28378 19.4094 9.46276 19.4836 9.64941 19.4837ZM9.64941 8.22279C10.5824 8.22391 11.4768 8.59502 12.1365 9.25473C12.7962 9.91443 13.1673 10.8089 13.1684 11.7418C13.1684 13.5478 10.9536 16.3384 9.64941 17.76C8.34526 16.3384 6.13039 13.5478 6.13039 11.7418C6.1315 10.8089 6.50262 9.91443 7.16232 9.25473C7.82202 8.59502 8.71645 8.22391 9.64941 8.22279Z" fill="#05CC84"/>
<path d="M11.7609 11.7419C11.7609 11.3243 11.6371 10.9161 11.4051 10.5689C11.1731 10.2216 10.8433 9.95102 10.4575 9.79122C10.0717 9.63141 9.64716 9.58959 9.23758 9.67106C8.82801 9.75253 8.45179 9.95363 8.15651 10.2489C7.86122 10.5442 7.66013 10.9204 7.57866 11.33C7.49719 11.7396 7.539 12.1641 7.69881 12.5499C7.85862 12.9357 8.12924 13.2655 8.47646 13.4975C8.82368 13.7295 9.2319 13.8533 9.6495 13.8533C10.2095 13.8533 10.7465 13.6309 11.1425 13.2349C11.5385 12.8389 11.7609 12.3019 11.7609 11.7419ZM8.9457 11.7419C8.9457 11.6027 8.98697 11.4666 9.06431 11.3509C9.14164 11.2352 9.25156 11.1449 9.38017 11.0917C9.50877 11.0384 9.65028 11.0245 9.78681 11.0516C9.92333 11.0788 10.0487 11.1458 10.1472 11.2442C10.2456 11.3427 10.3126 11.4681 10.3398 11.6046C10.3669 11.7411 10.353 11.8826 10.2997 12.0112C10.2465 12.1398 10.1563 12.2498 10.0405 12.3271C9.92477 12.4044 9.7887 12.4457 9.6495 12.4457C9.46284 12.4457 9.28382 12.3716 9.15184 12.2396C9.01985 12.1076 8.9457 11.9286 8.9457 11.7419ZM27.2446 25.818H30.0598V27.2256H27.2446V25.818Z" fill="#05CC84"/>
</svg>
