<svg width="40" height="41" viewBox="0 0 40 41" fill="none" xmlns="http://www.w3.org/2000/svg">
<path d="M20.0411 7.92391C17.0246 7.9025 14.5542 10.336 14.5314 13.3516C14.5087 16.367 16.9435 18.8385 19.9591 18.8613L20.0009 18.8614C22.9973 18.8614 25.4461 16.4352 25.4688 13.4336C25.4915 10.4184 23.0567 7.94664 20.0411 7.92391ZM20.0008 17.299L19.9708 17.2988C17.8168 17.2826 16.0776 15.5171 16.0938 13.3633C16.11 11.2191 17.8591 9.48618 19.9994 9.48618L20.0294 9.48633C22.1834 9.50258 23.9226 11.2681 23.9063 13.4219C23.8901 15.566 22.1411 17.299 20.0008 17.299Z" fill="#05CC84"/>
<path d="M24.7936 29.5207C29.9899 22.832 33.2374 19.3441 33.2812 13.4922C33.3362 6.12946 27.361 0.111084 19.9988 0.111084C12.7226 0.111084 6.77427 6.00391 6.71895 13.293C6.67427 19.3035 9.98201 22.7867 15.2142 29.5196C10.0091 30.2974 6.71895 32.2519 6.71895 34.6424C6.71895 36.2437 8.19911 37.6807 10.8869 38.6885C13.3332 39.6058 16.5697 40.1111 20.0001 40.1111C23.4305 40.1111 26.667 39.6058 29.1133 38.6885C31.801 37.6806 33.2812 36.2437 33.2812 34.6423C33.2812 32.2531 29.9941 30.2991 24.7936 29.5207ZM8.28138 13.3048C8.33013 6.87282 13.5782 1.67359 19.999 1.67359C26.4958 1.67359 31.7672 6.98516 31.7188 13.4806C31.6772 19.0379 28.2333 22.4627 22.7351 29.6301C21.7544 30.9079 20.8537 32.1161 20.0012 33.2979C19.1512 32.1154 18.2686 30.9289 17.2732 29.6297C11.5477 22.1621 8.23903 18.9962 8.28138 13.3048ZM20.0001 38.5487C13.293 38.5487 8.28138 36.4864 8.28138 34.6424C8.28138 33.2749 11.2773 31.5474 16.3147 30.9492C17.4282 32.4102 18.4044 33.7376 19.3619 35.0932C19.434 35.1952 19.5295 35.2785 19.6404 35.336C19.7514 35.3935 19.8744 35.4236 19.9994 35.4237H20.0001C20.1249 35.4236 20.2479 35.3937 20.3588 35.3364C20.4697 35.2791 20.5652 35.196 20.6374 35.0942C21.5859 33.7562 22.5888 32.3961 23.6928 30.9501C28.7255 31.5489 31.7188 33.2758 31.7188 34.6425C31.7187 36.4864 26.7072 38.5487 20.0001 38.5487Z" fill="#05CC84"/>
</svg>
