<svg width="41" height="40" viewBox="0 0 41 40" fill="none" xmlns="http://www.w3.org/2000/svg">
<path d="M15.9275 21.61H20.8162C21.3685 21.61 21.8162 22.0577 21.8162 22.61C21.8162 23.1623 21.3685 23.61 20.8162 23.61H15.9275C15.3752 23.61 14.9275 23.1623 14.9275 22.61C14.9275 22.0577 15.3752 21.61 15.9275 21.61Z" fill="#05CC84" stroke="#F5FDFA" stroke-width="0.5"/>
<path d="M18.771 2.51168C18.9017 2.52063 19.0293 2.55521 19.1466 2.61343L19.1465 2.61398C19.2642 2.67227 19.3691 2.75317 19.4555 2.85207C19.5418 2.95096 19.6078 3.06591 19.6497 3.19034C19.6916 3.31476 19.7085 3.44622 19.6995 3.5772C19.6906 3.70818 19.6559 3.8361 19.5974 3.95365L19.5973 3.95393L18.8685 5.42393L18.7575 5.64776L18.9813 5.75888L20.4513 6.48888L20.4513 6.4889C20.6888 6.60678 20.8698 6.81418 20.9543 7.06546C21.0389 7.31674 21.0202 7.59133 20.9023 7.82882C20.7844 8.06631 20.577 8.24724 20.3258 8.33181C20.0745 8.41638 19.7999 8.39767 19.5624 8.27979L19.4513 8.50372L19.5624 8.27978L16.6886 6.85353L16.6886 6.85352C16.6084 6.81374 16.5369 6.75855 16.478 6.6911C16.4192 6.62365 16.3742 6.54527 16.3457 6.46043C16.3172 6.37559 16.3056 6.28597 16.3117 6.19667C16.3179 6.10737 16.3415 6.02015 16.3814 5.94001L16.3815 5.93982L17.8077 3.06482L17.8078 3.0647C17.866 2.94707 17.947 2.84207 18.0458 2.75573C18.1447 2.66939 18.2597 2.60339 18.3841 2.56151C18.5085 2.51964 18.64 2.5027 18.771 2.51168ZM22.5035 28.8012H6.25153C5.12434 28.8 4.04367 28.3516 3.24662 27.5546C2.44961 26.7576 2.00128 25.677 2 24.5498V14.7976C2.00128 13.6705 2.44961 12.5899 3.24662 11.7928C4.04367 10.9958 5.12434 10.5475 6.25153 10.5462H22.5035C23.6307 10.5475 24.7113 10.9958 25.5084 11.7928C26.3054 12.5899 26.7538 13.6706 26.755 14.7977V24.5497C26.7538 25.6769 26.3054 26.7576 25.5084 27.5546C24.7113 28.3516 23.6307 28.8 22.5035 28.8012ZM6.25125 12.5475C5.00943 12.5475 4 13.5569 4 14.7987V24.5512C4 25.7917 5.00933 26.8025 6.25125 26.8025H22.5038C23.7456 26.8025 24.755 25.793 24.755 24.5512V14.7987C24.755 13.5583 23.7457 12.5475 22.5038 12.5475H6.25125Z" fill="#05CC84" stroke="#F5FDFA" stroke-width="0.5"/>
<path d="M3.24756 16.1125H25.5026V18.1125H3.24756V16.1125Z" fill="#05CC84" stroke="#F5FDFA" stroke-width="0.5"/>
<path d="M39.0012 20.0025C39.0012 28.7729 31.9066 35.9187 23.1553 36.0017L23.1542 35.9996L22.9993 36C18.798 36.0095 14.7634 34.3572 11.7757 31.4034L11.7753 31.403C10.7259 30.3703 9.82402 29.1982 9.09488 27.9201L10.8472 26.9559C11.4832 28.064 12.2673 29.0807 13.178 29.9779C15.7929 32.5635 19.3244 34.0098 23.0017 34.0012C30.7208 34.0009 37.0012 27.7203 37.0012 20.0012C37.0012 12.2819 30.7205 6.0012 23.0012 6.0012C21.6083 6.0012 20.2354 6.20483 18.9188 6.60589L18.3018 4.70385C19.8239 4.23719 21.4078 4.00064 23.0009 4.00245H23.0012C31.8231 4.00245 39.0012 11.1805 39.0012 20.0025Z" fill="#05CC84" stroke="#F5FDFA" stroke-width="0.5"/>
</svg>
