<svg width="40" height="41" viewBox="0 0 40 41" fill="none" xmlns="http://www.w3.org/2000/svg">
<path d="M36.0001 7.31112C35.9975 7.14663 35.9442 6.98695 35.8476 6.85381C35.751 6.72067 35.6156 6.62057 35.4601 6.56712L20.2601 1.36712C20.0919 1.30699 19.9082 1.30699 19.7401 1.36712L4.54005 6.56712C4.38447 6.62057 4.24915 6.72067 4.15251 6.85381C4.05588 6.98695 4.00265 7.14663 4.00005 7.31112L3.96005 9.67112C3.84005 16.9391 4.42805 22.1551 5.76405 25.6231C6.76578 28.2344 8.27636 30.6206 10.2081 32.6431C12.5189 34.9932 15.2573 36.8804 18.2761 38.2031L19.6681 38.8391C19.7723 38.8867 19.8855 38.9113 20.0001 38.9113C20.1146 38.9113 20.2278 38.8867 20.3321 38.8391L21.7241 38.2031C24.7428 36.8804 27.4812 34.9932 29.7921 32.6431C31.7256 30.6198 33.2376 28.2321 34.2401 25.6191C35.5761 22.1511 36.1641 16.9351 36.0441 9.66712L36.0001 7.31112ZM32.7481 25.0431C31.8224 27.4601 30.4246 29.6684 28.6361 31.5391C26.464 33.7362 23.8945 35.5008 21.0641 36.7391L20.0001 37.2311L18.9361 36.7471C16.1056 35.5088 13.5361 33.7442 11.3641 31.5471C9.57465 29.674 8.17673 27.4629 7.25205 25.0431C6.00005 21.7711 5.43605 16.7511 5.55605 9.71112L5.58405 7.91112L20.0001 2.95512L34.4001 7.89512L34.4281 9.69512C34.5641 16.7511 34.0001 21.7711 32.7481 25.0431Z" fill="#05CC84"/>
<path d="M32.0001 10.1112C31.9983 9.946 31.9454 9.78543 31.8488 9.6515C31.7521 9.51757 31.6163 9.41685 31.4601 9.36317L20.2601 5.52317C20.0913 5.46705 19.9089 5.46705 19.7401 5.52317L8.54007 9.36317C8.38385 9.41685 8.24807 9.51757 8.15139 9.6515C8.0547 9.78543 8.00184 9.946 8.00007 10.1112V10.1872C7.89207 16.5312 8.40007 21.3632 9.48407 24.1632C10.2768 26.2383 11.4763 28.1341 13.0121 29.7392C14.9054 31.6637 17.1481 33.2099 19.6201 34.2952L19.6681 34.3152C19.7713 34.3661 19.885 34.3921 20.0001 34.3912C20.1146 34.3912 20.2278 34.3667 20.3321 34.3192L20.3801 34.2952C22.8536 33.2156 25.099 31.6748 26.9961 29.7552C28.5318 28.1501 29.7313 26.2543 30.5241 24.1792C31.6001 21.3792 32.1241 16.5472 32.0081 10.2072L32.0001 10.1112ZM29.0201 23.5912C28.2994 25.4673 27.2114 27.1808 25.8201 28.6312C24.1468 30.3356 22.1739 31.7174 20.0001 32.7072C17.8204 31.7243 15.8407 30.3479 14.1601 28.6472C12.7687 27.1968 11.6808 25.4833 10.9601 23.6072C10.0001 21.0632 9.51207 16.6152 9.60007 10.7112L20.0001 7.14317L30.4001 10.7112C30.4881 16.6112 30.0001 21.0632 29.0281 23.6072L29.0201 23.5912Z" fill="#05CC84"/>
<path d="M23.756 16.2431L18.052 21.9471L16.244 20.1391C16.1697 20.0648 16.0814 20.0058 15.9843 19.9656C15.8872 19.9254 15.7831 19.9047 15.678 19.9047C15.5729 19.9047 15.4688 19.9254 15.3717 19.9656C15.2746 20.0058 15.1863 20.0648 15.112 20.1391C15.0377 20.2134 14.9787 20.3017 14.9385 20.3988C14.8983 20.4959 14.8776 20.6 14.8776 20.7051C14.8776 20.8102 14.8983 20.9143 14.9385 21.0114C14.9787 21.1085 15.0377 21.1968 15.112 21.2711L17.484 23.6431C17.5584 23.718 17.6469 23.7774 17.7444 23.8179C17.8419 23.8584 17.9464 23.8792 18.052 23.8791C18.2638 23.8782 18.4667 23.7933 18.616 23.6431L24.888 17.3751C24.9623 17.3008 25.0213 17.2125 25.0615 17.1154C25.1017 17.0183 25.1225 16.9142 25.1225 16.8091C25.1225 16.704 25.1017 16.5999 25.0615 16.5028C25.0213 16.4057 24.9623 16.3174 24.888 16.2431C24.8137 16.1688 24.7254 16.1098 24.6283 16.0696C24.5312 16.0294 24.4271 16.0087 24.322 16.0087C24.2169 16.0087 24.1128 16.0294 24.0157 16.0696C23.9186 16.1098 23.8303 16.1688 23.756 16.2431Z" fill="#05CC84"/>
</svg>
