<svg width="72" height="72" viewBox="0 0 72 72" fill="none" xmlns="http://www.w3.org/2000/svg">
<path d="M2.59535 35.5691C2.59366 41.6185 4.18666 47.5253 7.21573 52.7317L2.30566 70.5201L20.6522 65.7469C25.7266 68.488 31.4121 69.9242 37.1897 69.9246H37.2049C56.2778 69.9246 71.8037 54.5247 71.8118 35.5962C71.8155 26.424 68.2189 17.7991 61.6843 11.3102C55.1509 4.82179 46.4616 1.24663 37.2035 1.24244C18.1282 1.24244 2.60351 16.6415 2.59563 35.5691" fill="url(#paint0_linear_0_3)"/>
<path d="M0.300938 35.5579C0.298969 41.825 1.94906 47.9431 5.08612 53.3358L0 71.7619L19.0043 66.8177C24.2407 69.6505 30.1362 71.1441 36.1353 71.1463H36.1507C55.908 71.1463 71.9916 55.1925 72 35.5864C72.0034 26.0846 68.2774 17.1497 61.5094 10.4283C54.7405 3.70772 45.7405 0.00390698 36.1507 0C16.3901 0 0.308813 15.9516 0.300938 35.5579ZM11.6187 52.4071L10.9091 51.2894C7.92619 46.5832 6.35175 41.1446 6.354 35.5602C6.36019 19.2639 19.7263 6.00558 36.162 6.00558C44.1214 6.00893 51.6015 9.08763 57.2276 14.6735C62.8535 20.2599 65.9492 27.6859 65.9472 35.5842C65.9399 51.8805 52.5735 65.1405 36.1507 65.1405H36.1389C30.7915 65.1377 25.5471 63.7127 20.9734 61.02L19.8849 60.3795L8.60738 63.3134L11.6187 52.4071Z" fill="url(#paint1_linear_0_3)"/>
<path d="M28.2495 20.6924C27.5784 19.2124 26.8722 19.1826 26.234 19.1566C25.7115 19.1343 25.1141 19.136 24.5173 19.136C23.9199 19.136 22.9493 19.359 22.1289 20.2478C21.3077 21.1375 18.9935 23.2874 18.9935 27.6602C18.9935 32.0332 22.2034 36.2591 22.6509 36.8527C23.0989 37.4452 28.8477 46.7058 37.9523 50.2684C45.5191 53.2291 47.0589 52.6403 48.7011 52.4918C50.3436 52.3439 54.001 50.3424 54.7472 48.267C55.4939 46.1918 55.4939 44.413 55.27 44.0413C55.0461 43.671 54.4488 43.4485 53.553 43.0043C52.6569 42.5597 48.2531 40.4095 47.4321 40.1128C46.6109 39.8164 46.0138 39.6685 45.4164 40.5585C44.819 41.4471 43.1037 43.4485 42.5808 44.0413C42.0586 44.6354 41.5357 44.7094 40.6402 44.2648C39.7439 43.8189 36.8591 42.8815 33.4366 39.8538C30.7737 37.4979 28.9759 34.5886 28.4534 33.6987C27.9308 32.8101 28.3974 32.3284 28.8466 31.8856C29.249 31.4873 29.7426 30.8477 30.1909 30.3289C30.6376 29.8098 30.7866 29.4395 31.0853 28.8468C31.3843 28.2535 31.2347 27.7344 31.0111 27.2898C30.7866 26.8453 29.046 22.4497 28.2495 20.6924Z" fill="white"/>
<defs>
<linearGradient id="paint0_linear_0_3" x1="3477.61" y1="6929.01" x2="3477.61" y2="1.24244" gradientUnits="userSpaceOnUse">
<stop stop-color="#1FAF38"/>
<stop offset="1" stop-color="#60D669"/>
</linearGradient>
<linearGradient id="paint1_linear_0_3" x1="3600" y1="7176.19" x2="3600" y2="0" gradientUnits="userSpaceOnUse">
<stop stop-color="#F9F9F9"/>
<stop offset="1" stop-color="white"/>
</linearGradient>
</defs>
</svg>
