<svg width="16" height="16" viewBox="0 0 16 16" fill="none" xmlns="http://www.w3.org/2000/svg">
<g clip-path="url(#clip0_197_3894)">
<path d="M5.58685 5.90211C6.05085 6.86853 6.68337 7.77429 7.48443 8.57534C8.28548 9.37639 9.19124 10.0089 10.1577 10.4729C10.2408 10.5128 10.2823 10.5328 10.3349 10.5481C10.5218 10.6026 10.7513 10.5635 10.9096 10.4501C10.9542 10.4182 10.9923 10.3801 11.0685 10.3039C11.3016 10.0708 11.4181 9.95431 11.5353 9.87812C11.9772 9.59079 12.5469 9.59079 12.9889 9.87812C13.106 9.95431 13.2226 10.0708 13.4556 10.3039L13.5856 10.4338C13.9398 10.7881 14.117 10.9653 14.2132 11.1555C14.4046 11.5339 14.4046 11.9807 14.2132 12.3591C14.117 12.5494 13.9399 12.7265 13.5856 13.0808L13.4805 13.1859C13.1274 13.539 12.9508 13.7155 12.7108 13.8504C12.4445 14 12.0308 14.1075 11.7253 14.1066C11.45 14.1058 11.2619 14.0524 10.8856 13.9456C8.86333 13.3716 6.95509 12.2886 5.36311 10.6967C3.77112 9.10467 2.68814 7.19643 2.11416 5.17417C2.00735 4.79787 1.95395 4.60972 1.95313 4.33442C1.95222 4.02894 2.0598 3.61528 2.20941 3.34894C2.34424 3.10892 2.52078 2.93238 2.87386 2.5793L2.97895 2.47421C3.33325 2.11992 3.5104 1.94277 3.70065 1.84654C4.07903 1.65516 4.52587 1.65516 4.90424 1.84654C5.0945 1.94277 5.27164 2.11991 5.62594 2.47421L5.75585 2.60412C5.98892 2.83719 6.10546 2.95373 6.18165 3.07091C6.46898 3.51284 6.46898 4.08256 6.18165 4.52449C6.10546 4.64167 5.98892 4.75821 5.75585 4.99128C5.67964 5.06749 5.64154 5.10559 5.60965 5.15013C5.4963 5.30842 5.45717 5.53793 5.51165 5.72483C5.52698 5.77742 5.54694 5.81899 5.58685 5.90211Z" stroke="#144856" stroke-width="2" stroke-linecap="round" stroke-linejoin="round"/>
</g>
<defs>
<clipPath id="clip0_197_3894">
<rect width="16" height="16" fill="white"/>
</clipPath>
</defs>
</svg>
