<svg width="208" height="71" viewBox="0 0 208 71" fill="none" xmlns="http://www.w3.org/2000/svg">
<path d="M191.786 0.963911C192.279 0.622835 192.797 0.305486 193.32 0C193.949 5.03903 194.219 10.1137 194.842 15.1527C194.908 16.7454 195.365 18.2995 195.238 19.9011C193.762 19.6519 192.491 18.8422 191.078 18.4122C189.853 21.1823 188.621 23.9495 187.272 26.6633C184.591 32.6217 181.753 38.509 179.094 44.4734C177.115 48.6256 175.269 52.8401 173.263 56.9775C171.884 55.7467 170.828 54.2252 169.66 52.8105C167.148 49.6755 164.577 46.5881 162.014 43.4946C159.926 47.6528 158.417 52.066 156.516 56.3102C155.606 58.6414 154.55 60.9162 153.66 63.2593C152.474 65.5667 151.866 68.153 150.532 70.3774C147.924 70.496 145.31 70.3893 142.701 70.4248C141.207 70.3744 139.67 70.6117 138.218 70.1549C145.04 53.9553 151.781 37.723 158.495 21.4789C158.649 21.4967 158.958 21.5353 159.112 21.5531C162.574 26.1531 166.392 30.4863 169.953 35.0122C170.277 35.7033 170.788 34.9143 170.94 34.5288C173.118 29.9257 175.194 25.2752 177.366 20.6692C178.346 18.3024 179.668 16.0751 180.47 13.6342C179.209 12.9846 177.889 12.4478 176.573 11.9169C176.912 11.5521 177.251 11.1814 177.653 10.8818C182.385 7.60155 187.075 4.27087 191.786 0.963911Z" fill="white"/>
<path d="M12.6272 20.8439C15.5832 20.0935 18.6724 20.2804 21.6919 20.399C24.3061 20.8617 27.0322 21.3451 29.2711 22.8399C32.6205 24.8152 35.05 28.2586 35.7036 32.043C35.8669 33.2027 35.8337 34.3802 35.8367 35.5487C32.4056 35.5368 28.9746 35.608 25.5435 35.5102C25.5496 33.8641 24.8809 32.1528 23.4619 31.1948C21.3107 29.5814 18.4697 29.6377 15.9039 29.8691C14.4214 30.1656 12.8541 30.7173 11.892 31.9274C10.8935 33.44 10.9783 35.7207 12.4941 36.8804C15.1475 38.7786 18.506 39.0751 21.5497 40.0272C25.1926 40.9822 28.9625 41.9194 32.094 44.0697C34.342 45.5289 36.0818 47.7355 36.9592 50.2328C38.0272 54.5511 37.7428 59.4923 35.0198 63.1937C32.097 67.3489 26.9656 69.4191 21.9885 69.8877C18.7813 69.9025 15.4985 70.1991 12.3791 69.2945C7.92541 68.12 3.71981 65.3351 1.68358 61.1799C0.573176 58.7983 -0.137843 56.1764 0.0225148 53.5427C3.53222 53.5309 7.03891 53.5635 10.5456 53.5338C10.7604 55.0227 11.0448 56.6005 12.0917 57.7691C13.4562 59.2431 15.4229 60.1151 17.4289 60.3346C19.341 60.4414 21.3591 60.4414 23.12 59.5931C24.5481 58.905 26.0095 57.9055 26.4996 56.3425C26.9051 54.8744 26.8022 53.0504 25.5617 51.9827C23.6556 50.4968 21.2563 49.8413 18.9175 49.3341C14.6211 48.1893 10.125 47.4004 6.27645 45.0781C3.56551 43.5032 1.47178 40.8013 0.978608 37.7168C0.24641 33.7959 0.79102 29.442 3.27807 26.1854C5.514 23.2729 9.04489 21.5616 12.6272 20.8439Z" fill="white"/>
<path d="M58.2172 21.9975C58.3988 21.7098 58.4956 21.1641 58.9313 21.2086C62.1717 21.1967 65.4121 21.1997 68.6526 21.2205C74.4496 35.5783 80.4767 49.8442 86.31 64.1842C86.9817 65.7769 87.726 67.3458 88.2162 69.0038C84.4432 69.0927 80.6703 69.0186 76.8974 69.0453C75.6962 66.0735 74.6826 63.0394 73.4693 60.0735C66.9552 60.032 60.4411 60.0438 53.9269 60.0676C52.8831 63.0513 51.6335 65.9637 50.744 68.9978C46.9952 69.0809 43.2435 69.069 39.4948 68.9978C45.6942 53.3143 51.9936 37.6692 58.2172 21.9975ZM63.4183 34.303C62.5408 37.1443 61.3094 39.867 60.432 42.7053C59.4244 44.3336 59.0009 46.211 58.2596 47.9549C57.8269 48.987 57.4639 50.0488 57.3126 51.1581C60.1597 51.1403 63.0037 51.1492 65.8508 51.1492C67.3425 51.1432 68.8462 51.2292 70.3288 51.0127C70.0746 50.5026 69.8083 49.9984 69.53 49.5001C69.1699 48.0024 68.4014 46.6381 67.9264 45.1759C67.1942 42.996 66.2079 40.902 65.6088 38.6806C65.5846 38.8022 65.5634 38.9208 65.5422 39.0454C65.1277 37.3964 64.3925 35.8482 63.857 34.2377C63.7481 34.2555 63.5272 34.2852 63.4183 34.303Z" fill="white"/>
<path d="M92.9509 21.1975C96.4939 21.2034 100.04 21.2153 103.583 21.2034C103.574 27.3398 103.58 33.4792 103.58 39.6186C109.701 39.6275 115.825 39.6334 121.945 39.6156C122.003 33.4822 121.979 27.3457 121.957 21.2093C125.497 21.2004 129.037 21.2093 132.58 21.2093C132.586 37.145 132.574 53.0807 132.586 69.0164C129.04 69.0727 125.494 69.0371 121.951 69.0401C121.994 62.4914 121.985 55.9398 121.954 49.3911C115.828 49.3704 109.704 49.3674 103.577 49.3971C103.583 55.9457 103.574 62.4974 103.58 69.049C100.04 69.0549 96.5 69.0342 92.96 69.052C92.9782 53.1015 92.9993 37.148 92.9509 21.1975Z" fill="white"/>
<path d="M188.376 28.5881C188.679 27.6895 188.591 26.1828 189.871 26.0671C191.399 27.0222 192.134 28.9025 191.677 30.6198C191.241 29.6766 190.818 28.7305 190.452 27.7607C190.228 27.7429 189.78 27.7102 189.556 27.6924C187.402 32.5268 185.099 37.293 182.869 42.0948C181.704 44.156 180.788 46.336 179.901 48.5218C180.186 48.4744 180.476 48.4299 180.767 48.3854C180.491 48.8837 180.183 49.3612 179.85 49.8238C179.456 48.5693 179.792 47.285 179.865 46.0186C179.98 45.381 179.405 44.9539 179.093 44.4734C181.753 38.509 184.591 32.6217 187.272 26.6633C187.532 27.3573 187.898 28.0098 188.376 28.5881Z" fill="#154855"/>
<path d="M182.869 42.0945C185.099 37.2927 187.402 32.5265 189.556 27.6921C189.78 27.7099 190.228 27.7426 190.451 27.7603C190.818 28.7302 191.241 29.6763 191.677 30.6195C193.06 33.9976 194.515 37.3461 195.831 40.7539C196.539 42.3732 197.323 43.9659 197.873 45.6505C200.366 51.5289 202.793 57.437 205.229 63.3391C206.166 65.688 207.44 67.9332 208 70.4127C204.185 70.4512 200.366 70.4186 196.551 70.4364C196.221 70.3919 195.734 70.5165 195.586 70.122C194.56 68.1556 193.952 66.0113 193.026 63.9975C191.734 61.1651 190.76 58.2081 189.435 55.3905C188.884 54.1952 188.494 52.9377 187.949 51.7395C186.679 49.0761 185.813 46.2467 184.482 43.61C183.934 44.1053 183.405 44.6243 182.918 45.176C182.736 45.1167 182.376 44.9951 182.195 44.9358C182.428 43.9896 182.633 43.0376 182.869 42.0945Z" fill="#05CC84"/>
</svg>
