<svg width="30" height="30" viewBox="0 0 30 30" fill="none" xmlns="http://www.w3.org/2000/svg">
<path fill-rule="evenodd" clip-rule="evenodd" d="M1.3418 14.782C1.3418 9.29469 1.3418 6.55103 2.69447 4.57485C3.2985 3.69239 4.08031 2.93665 4.9932 2.35275C7.03752 1.04517 9.87579 1.04517 15.5523 1.04517C21.2289 1.04517 24.0671 1.04517 26.1115 2.35275C27.0243 2.93665 27.8061 3.69239 28.4102 4.57485C29.7628 6.55103 29.7628 9.29469 29.7628 14.782C29.7628 20.2693 29.7628 23.013 28.4102 24.9892C27.8061 25.8716 27.0243 26.6274 26.1115 27.2113C24.0671 28.5189 21.2289 28.5189 15.5523 28.5189H15.5523H15.5523C9.87578 28.5189 7.03752 28.5189 4.9932 27.2113C4.08031 26.6274 3.2985 25.8716 2.69447 24.9892C1.3418 23.013 1.3418 20.2693 1.3418 14.782ZM22.9092 14.7819C22.9092 18.7096 19.6154 21.8936 15.5522 21.8936C11.4891 21.8936 8.19527 18.7096 8.19527 14.7819C8.19527 10.8542 11.4891 7.67019 15.5522 7.67019C19.6154 7.67019 22.9092 10.8542 22.9092 14.7819ZM15.5522 19.4876C18.2407 19.4876 20.4201 17.3808 20.4201 14.7819C20.4201 12.1831 18.2407 10.0763 15.5522 10.0763C12.8638 10.0763 10.6843 12.1831 10.6843 14.7819C10.6843 17.3808 12.8638 19.4876 15.5522 19.4876ZM23.1994 8.98394C24.1541 8.98394 24.928 8.23579 24.928 7.31289C24.928 6.39 24.1541 5.64185 23.1994 5.64185C22.2447 5.64185 21.4707 6.39 21.4707 7.31289C21.4707 8.23579 22.2447 8.98394 23.1994 8.98394Z" fill="#05CC84"/>
</svg>
