<svg width="29" height="24" viewBox="0 0 29 24" fill="none" xmlns="http://www.w3.org/2000/svg">
<path d="M19.6538 0.590176V0.585205H20.942L21.4127 0.679646C21.7265 0.740958 22.0114 0.821308 22.2674 0.920719C22.5234 1.02013 22.7712 1.13612 23.0106 1.26866C23.2501 1.4012 23.4673 1.53625 23.6622 1.67376C23.8554 1.80963 24.0288 1.95378 24.1824 2.1062C24.3343 2.26029 24.5713 2.30005 24.8934 2.2255C25.2155 2.15094 25.5623 2.04738 25.9339 1.91483C26.3055 1.78229 26.673 1.63318 27.0363 1.46748C27.3997 1.30179 27.621 1.19659 27.7003 1.15185C27.7779 1.10548 27.8192 1.08062 27.8241 1.07729L27.829 1.06984L27.8538 1.05741L27.8786 1.04498L27.9034 1.03256L27.9281 1.02013L27.9331 1.01267L27.9405 1.0077L27.948 1.00273L27.9529 0.995278L27.9777 0.987822L28.0025 0.982851L27.9975 1.02013L27.9901 1.05741L27.9777 1.09469L27.9653 1.13197L27.9529 1.15682L27.9405 1.18167L27.9281 1.21895C27.9199 1.24381 27.9116 1.27694 27.9034 1.31837C27.8951 1.3598 27.8167 1.52546 27.668 1.81542C27.5194 2.10538 27.3336 2.39947 27.1106 2.6977C26.8877 2.99594 26.6878 3.22125 26.5111 3.3737C26.3328 3.52779 26.2147 3.63548 26.1568 3.69679C26.099 3.75974 26.0289 3.81772 25.9463 3.87076L25.8224 3.95277L25.7976 3.9652L25.7729 3.97762L25.7679 3.98508L25.7605 3.99005L25.753 3.99502L25.7481 4.00248L25.7233 4.0149L25.6985 4.02733L25.6936 4.03479L25.6862 4.03976L25.6787 4.04473L25.6738 4.05218L25.6688 4.05964L25.6614 4.06461L25.6539 4.06958L25.649 4.07704H25.7729L26.4665 3.92792C26.929 3.82851 27.3707 3.70839 27.7919 3.56755L28.4608 3.34388L28.5351 3.31902L28.5723 3.3066L28.597 3.29417L28.6218 3.28174L28.6466 3.26932L28.6713 3.25689L28.7209 3.24943L28.7704 3.24446V3.29417L28.7581 3.29914L28.7457 3.3066L28.7407 3.31405L28.7333 3.31902L28.7258 3.32399L28.7209 3.33145L28.716 3.33891L28.7085 3.34388L28.7011 3.34885L28.6961 3.3563L28.6912 3.36376L28.6837 3.36873L28.6713 3.39358L28.659 3.41843L28.6515 3.42341C28.6482 3.42838 28.5434 3.56919 28.3369 3.8459C28.1305 4.12426 28.019 4.26507 28.0025 4.2684C27.986 4.27337 27.9628 4.29823 27.9331 4.34296C27.905 4.38934 27.73 4.57409 27.4079 4.89718C27.0858 5.22027 26.7704 5.50772 26.4616 5.75958C26.1511 6.01308 25.9942 6.32456 25.9909 6.69405C25.9859 7.06187 25.9669 7.47776 25.9339 7.94166C25.9009 8.40559 25.8389 8.90677 25.7481 9.44526C25.6573 9.98375 25.5169 10.5926 25.3269 11.2719C25.137 11.9513 24.9058 12.614 24.6333 13.2602C24.3608 13.9064 24.0759 14.4862 23.7786 14.9999C23.4813 15.5135 23.2088 15.9484 22.9611 16.3047C22.7133 16.6609 22.4615 16.9964 22.2055 17.3112C21.9495 17.626 21.6258 17.9806 21.2344 18.3749C20.8413 18.7676 20.6266 18.983 20.5903 19.0211C20.5523 19.0575 20.3905 19.1934 20.1047 19.4287C19.8207 19.6656 19.5151 19.9025 19.1881 20.1395C18.8627 20.3747 18.5638 20.5711 18.2913 20.7285C18.0188 20.8859 17.6901 21.0656 17.3053 21.2678C16.9222 21.4716 16.5076 21.6605 16.0617 21.8344C15.6158 22.0084 15.1451 22.1699 14.6496 22.3191C14.1541 22.4682 13.6752 22.5842 13.2128 22.667C12.7503 22.7498 12.226 22.8203 11.6396 22.8783L10.7602 22.9652V22.9777H9.14992V22.9652L8.93934 22.9528C8.79898 22.9445 8.68336 22.9362 8.59251 22.928C8.5017 22.9197 8.15898 22.8741 7.56442 22.7913C6.96986 22.7084 6.5033 22.6256 6.16472 22.5427C5.82617 22.4599 5.32243 22.3025 4.65355 22.0705C3.98467 21.8386 3.4124 21.6041 2.93675 21.3672C2.46276 21.1319 2.16548 20.9828 2.04491 20.9198C1.926 20.8585 1.79222 20.7823 1.64358 20.6912L1.42062 20.5545L1.41569 20.547L1.40823 20.5421L1.4008 20.5371L1.39585 20.5297L1.37107 20.5172L1.3463 20.5048L1.34137 20.4973L1.33391 20.4924L1.32648 20.4874L1.32153 20.4799L1.3166 20.4725L1.30914 20.4675H1.29675V20.4178L1.32153 20.4228L1.3463 20.4302L1.45778 20.4427C1.5321 20.4509 1.73442 20.4634 2.06473 20.4799C2.39506 20.4965 2.746 20.4965 3.1176 20.4799C3.4892 20.4634 3.86907 20.4261 4.25717 20.3681C4.6453 20.3101 5.1036 20.2107 5.6321 20.0699C6.16061 19.929 6.64617 19.7617 7.0888 19.5678C7.52976 19.3724 7.84354 19.2265 8.03018 19.1304C8.21514 19.036 8.49756 18.8604 8.87741 18.6036L9.4472 18.2183L9.45215 18.2109L9.45958 18.2059L9.46704 18.2009L9.47197 18.1935L9.47692 18.186L9.48436 18.1811L9.49181 18.1761L9.49674 18.1686L9.52152 18.1612L9.54629 18.1562L9.55125 18.1313L9.55868 18.1065L9.56613 18.1015L9.57106 18.0941L9.37288 18.0816C9.24076 18.0734 9.11276 18.0651 8.98889 18.0568C8.86502 18.0485 8.67097 18.0112 8.40671 17.945C8.14248 17.8787 7.85759 17.7793 7.55203 17.6467C7.2465 17.5142 6.94922 17.3568 6.66019 17.1745C6.37118 16.9923 6.16225 16.8406 6.03342 16.7197C5.90626 16.6004 5.7411 16.4314 5.53796 16.2127C5.33647 15.9924 5.1614 15.7662 5.01276 15.5342C4.86412 15.3023 4.72209 15.0347 4.58668 14.7315L4.38104 14.2791L4.36865 14.2419L4.35627 14.2046L4.34883 14.1797L4.34388 14.1549L4.38104 14.1599L4.4182 14.1673L4.69071 14.2046C4.87239 14.2294 5.15729 14.2377 5.54539 14.2294C5.93351 14.2212 6.20188 14.2046 6.35052 14.1797C6.49916 14.1549 6.59001 14.1383 6.62303 14.13L6.67258 14.1176L6.73451 14.1052L6.79644 14.0928L6.8014 14.0853L6.80883 14.0803L6.81629 14.0754L6.82122 14.0679L6.77167 14.0555L6.72212 14.043L6.67258 14.0306L6.62303 14.0182L6.57348 14.0058C6.54046 13.9975 6.48266 13.9809 6.40007 13.9561C6.3175 13.9312 6.09454 13.8401 5.73119 13.6827C5.36786 13.5253 5.07883 13.372 4.86412 13.2229C4.64888 13.0734 4.44364 12.9098 4.24974 12.7333C4.05651 12.5544 3.8443 12.324 3.61306 12.0424C3.38185 11.7607 3.17542 11.4335 2.99373 11.0607C2.81207 10.6879 2.67581 10.3317 2.58497 9.99202C2.49449 9.65436 2.4348 9.30914 2.40663 8.96063L2.36201 8.43872L2.38678 8.44369L2.41156 8.45115L2.43633 8.46357L2.4611 8.476L2.48588 8.48842L2.51065 8.50085L2.89464 8.67482C3.15064 8.79081 3.46856 8.89022 3.84841 8.97306C4.22829 9.05589 4.45536 9.10147 4.52968 9.10975L4.64116 9.12217H4.86412L4.85919 9.11472L4.85173 9.10975L4.8443 9.10478L4.83935 9.09732L4.83442 9.08986L4.82696 9.08489L4.81953 9.07992L4.81457 9.07247L4.7898 9.06004L4.76503 9.04762L4.7601 9.04016L4.75264 9.03519L4.74521 9.03022L4.74025 9.02276L4.71548 9.01034L4.69071 8.99791L4.68578 8.99045C4.68082 8.98712 4.6098 8.93411 4.4727 8.83139C4.33726 8.72701 4.19524 8.59199 4.0466 8.42629C3.89796 8.2606 3.74932 8.08663 3.60068 7.90438C3.45176 7.72172 3.31913 7.52629 3.2043 7.32034C3.08871 7.11324 2.96648 6.84977 2.83766 6.53002C2.7105 6.2119 2.61388 5.8913 2.54781 5.56821C2.48176 5.24512 2.4446 4.92619 2.43633 4.61137C2.42808 4.29656 2.43633 4.02733 2.4611 3.80365C2.48588 3.57998 2.53542 3.3273 2.60974 3.04564C2.68406 2.76398 2.79143 2.46575 2.9318 2.15094L3.14237 1.67873L3.15476 1.64145L3.16714 1.60417L3.1746 1.5992L3.17953 1.59175L3.18448 1.58429L3.19192 1.57932L3.19937 1.58429L3.2043 1.59175L3.20926 1.5992L3.21669 1.60417L3.22415 1.60914L3.22908 1.6166L3.23403 1.62406L3.24146 1.62903L3.25385 1.65388L3.26624 1.67873L3.27369 1.6837L3.27862 1.69116L3.61306 2.06395C3.83602 2.31248 4.10028 2.59001 4.40581 2.89652C4.71137 3.20303 4.88064 3.36209 4.91367 3.3737C4.94671 3.38695 4.98799 3.42505 5.03753 3.48802C5.08708 3.54934 5.25224 3.69597 5.533 3.92792C5.81378 4.15987 6.18125 4.42913 6.63542 4.73564C7.08961 5.04215 7.59333 5.34453 8.14659 5.64277C8.69988 5.941 9.29444 6.21023 9.93028 6.45049C10.5661 6.69074 11.0121 6.84813 11.268 6.92269C11.524 6.99725 11.9617 7.09251 12.581 7.2085C13.2004 7.32449 13.6669 7.39905 13.9807 7.43218C14.2945 7.46531 14.5092 7.48437 14.6248 7.48934L14.7982 7.49431L14.7933 7.45703L14.7859 7.41975L14.7363 7.10909C14.7033 6.90199 14.6868 6.61203 14.6868 6.23924C14.6868 5.86644 14.7157 5.52265 14.7735 5.20784C14.8313 4.89303 14.918 4.57409 15.0336 4.25101C15.1492 3.92792 15.2624 3.6686 15.373 3.47311C15.4853 3.27926 15.6323 3.05807 15.814 2.80954C15.9956 2.56101 16.231 2.30421 16.52 2.0391C16.809 1.77399 17.1393 1.53789 17.5109 1.33079C17.8825 1.12369 18.2253 0.966274 18.539 0.858587C18.8528 0.750899 19.1171 0.680466 19.3318 0.647337C19.5465 0.614208 19.6538 0.595146 19.6538 0.590176Z" fill="#05CC84"/>
</svg>
