<svg width="33" height="24" viewBox="0 0 33 24" fill="none" xmlns="http://www.w3.org/2000/svg">
<path d="M17.7386 22.4843L11.3552 22.3679C9.28838 22.3273 7.21642 22.4083 5.19013 21.988C2.10767 21.3601 1.8893 18.2813 1.6608 15.6988C1.34594 12.0681 1.46783 8.37154 2.062 4.77116C2.39743 2.75097 3.71748 1.54551 5.75889 1.41433C12.6502 0.93827 19.5873 0.994688 26.4632 1.21679C27.1894 1.23715 27.9206 1.34843 28.6367 1.4751C32.1713 2.09291 32.2575 5.58185 32.4866 8.51889C32.7151 11.4862 32.6187 14.4688 32.1819 17.4159C31.8315 19.8561 31.1611 21.9024 28.332 22.0999C24.7872 22.3582 21.3238 22.5662 17.769 22.5C17.7692 22.4843 17.7488 22.4843 17.7386 22.4843ZM13.9858 16.3065C16.6571 14.7772 19.2774 13.2733 21.9334 11.7542C19.2571 10.2248 16.6418 8.72094 13.9858 7.20183V16.3065Z" fill="#05CC84"/>
</svg>
